<?xml version="1.0" encoding="utf-8"?>
<svg xmlns="http://www.w3.org/2000/svg" xmlns:xlink="http://www.w3.org/1999/xlink" version="1.1" style="width:0;height:0;position:absolute;overflow:hidden;">
  <defs>
<symbol viewBox="0 0 17.14900016784668 26.02899932861328" aria-labelledby="dgsi-dev-heroku-title" id="si-dev-heroku"><title id="dgsi-dev-heroku-title">icon heroku</title><path d="M.001 6.653c0 3.552.097 6.459.226 6.459.097 0 1.776-.517 3.746-1.13 2.68-.904 3.972-1.13 5.361-1.066l1.808.097.097 7.492.065 7.524h3.875v-7.88c0-7.653-.032-7.879-.743-8.945-1.292-1.938-4.618-2.358-8.752-1.13l-1.486.452V.194H0v6.459zm11.142-4.101a94.115 94.115 0 0 0-1.389 2.551c-.065.161.807.258 1.938.258h2.034l1.162-1.873C17.116 0 17.149.194 14.63.194h-2.196l-1.292 2.357zM.001 21.992c0 2.034.129 3.714.258 3.714s1.066-.839 2.099-1.873l1.841-1.873-1.873-1.841C1.293 19.118.356 18.278.227 18.278s-.226 1.679-.226 3.714z"/></symbol>
<symbol viewBox="0 0 22.556997299194336 17.176000595092773" aria-labelledby="dssi-dev-javascript_1-title" id="si-dev-javascript_1"><title id="dssi-dev-javascript_1-title">icon javascript_1</title><path d="M4.912.27h3.751v10.514c0 4.738-2.271 6.392-5.899 6.392-.888 0-2.024-.148-2.764-.395l.42-3.036a6.18 6.18 0 0 0 1.925.296c1.58 0 2.567-.716 2.567-3.282V.27zm7.008 12.785c.987.518 2.567 1.037 4.171 1.037 1.728 0 2.641-.716 2.641-1.826 0-1.012-.79-1.629-2.789-2.32-2.764-.987-4.59-2.517-4.59-4.961C11.353 2.147 13.747 0 17.646 0c1.9 0 3.258.37 4.245.839l-.839 3.011a7.779 7.779 0 0 0-3.455-.79c-1.629 0-2.419.765-2.419 1.604 0 1.061.913 1.53 3.085 2.369 2.937 1.086 4.294 2.616 4.294 4.985 0 2.789-2.122 5.158-6.688 5.158-1.9 0-3.776-.518-4.714-1.037l.765-3.085z"/></symbol>
<symbol viewBox="0 0 31.29599952697754 31.29599952697754" aria-labelledby="dzsi-dev-js_badge-title" id="si-dev-js_badge"><title id="dzsi-dev-js_badge-title">icon js_badge</title><path d="M0 0v31.296h31.296V0H0zm16.334 26.772c-.461.937-1.342 1.553-2.362 1.85-1.568.36-3.067.155-4.183-.515-.747-.458-1.33-1.163-1.725-1.975.794-.485 1.586-.973 2.38-1.458.021.009.083.122.167.268.303.509.565.869 1.08 1.121.506.172 1.615.283 2.044-.607.262-.452.178-1.936.178-3.545 0-2.529.012-5.016.012-7.576h2.927c0 2.688.015 5.383 0 8.067.006 1.645.149 3.14-.518 4.369zm12.144-.827c-1.017 3.481-6.691 3.594-8.957 1.294-.479-.541-.779-.824-1.065-1.449 1.205-.693 1.205-.693 2.377-1.371.637.979 1.226 1.517 2.285 1.737 1.437.175 2.883-.318 2.559-1.844-.333-1.247-2.942-1.55-4.718-2.883-1.803-1.211-2.225-4.153-.744-5.834.494-.622 1.336-1.086 2.219-1.309l.922-.119c1.77-.036 2.877.431 3.689 1.339.226.229.41.476.756 1.012-.943.601-.94.595-2.291 1.47-.289-.622-.767-1.012-1.273-1.181-.785-.238-1.776.021-1.981.851-.071.256-.056.494.057.916.318.726 1.386 1.041 2.344 1.481 2.758 1.119 3.689 2.317 3.918 3.745.22 1.229-.054 2.026-.095 2.145z"/></symbol>
  </defs>
</svg>
